<svg width="513" height="514" viewBox="0 0 513 514" fill="none" xmlns="http://www.w3.org/2000/svg">
<path d="M418.844 463.227C596.51 223.902 476.355 84.1797 394.069 44.234C131.286 -58.9835 84.0822 46.7051 46.345 111.588C5.64431 181.566 -52.9502 381.354 95.8936 463.227C213.571 527.956 394.069 496.599 418.844 463.227Z" fill="#C05D22"/>
<path d="M417.211 47.242C414.153 42.7124 420.707 46.5194 421.733 48.0357C426.635 55.279 431.479 62.9195 436.209 70.8896C450.918 95.6762 464.873 122.649 477.771 153.219C508.586 226.252 528.002 319.785 494.271 396.061C488.342 409.469 481.014 420.513 473.753 429.24C441.096 468.493 404.014 486.591 367.433 498.138C292.608 521.759 213.004 521.032 137.524 467.852C98.9986 440.709 42.094 395.914 23.2557 294.778C16.4039 257.993 21.7334 215.673 28.8056 184.741C44.3645 116.691 79.6317 80.6411 108.788 58.2996C133.19 39.6009 158.292 26.9005 183.834 17.6701C204.108 10.3434 224.656 6.02959 245.266 3.46192C261.654 1.42032 278.193 0.865075 294.731 3.90093C308.071 6.34957 321.522 11.8094 334.698 19.5321C380.958 46.6454 466.913 125.322 478.385 262.73C487.689 374.169 430.877 417.829 397.786 436.28C320.617 479.307 234.786 471.663 155.316 420.501C121.773 398.906 78.4 368.957 69.3339 271.744C60.622 178.329 98.5323 115.123 126.867 84.6992C189.06 17.9226 277.576 18.8779 345.744 73.0404C376.24 97.2717 424.577 139.947 426.94 234.439C427.645 262.642 423.992 291.389 418.401 314.466C392.357 421.959 333.221 423.628 285.929 422.721C272.326 422.461 258.693 421.476 245.05 418.896C228.459 415.758 211.82 411.557 195.296 404.293C171.886 394.002 122.892 373.334 111.851 308.737C97.2189 223.131 119.061 154.17 148.115 120.862C201.873 59.2337 267.358 63.5829 326.266 108.643C350.516 127.193 394.908 170.652 391.349 249.61C388.743 307.399 360.081 334.353 341.073 349.572C294.711 386.69 238.81 388.796 189.49 360.741C172.273 350.947 146.896 331.182 138.268 286.784C126.474 226.091 145.638 178.46 164.879 152.788C205.996 97.9256 256.751 93.5486 304.018 121.203C321.964 131.703 358.663 154.414 357.239 215.418C356.397 251.486 340.522 284.058 328.141 295.35C296.212 324.471 256.66 321.582 222.202 306.321C212.415 301.986 154.243 271.161 180.039 223.424C182.727 218.448 185.485 213.786 188.535 210.117C194.322 203.155 200.243 197.4 206.345 192.053C214.832 184.616 223.666 179.168 232.439 173.682C233.227 173.189 234.018 175.183 233.8 177.118C233.436 180.359 210.536 194.219 207.182 197.025C189.404 211.897 156.707 247.469 192.688 282.215C216.747 305.449 243.962 310.537 268.821 310.814C283.744 310.981 298.764 308.669 313.116 300.825C335.44 288.625 376.66 219.149 342.154 162.53C336.825 153.785 330.964 147.266 325.058 141.808C276.162 96.624 217.179 96.5906 172.549 149.14C153.717 171.314 127.893 217.065 139.214 279.914C147.561 326.252 172.101 345.034 189.815 355.64C238.786 384.964 294.184 379.95 340.285 344.559C360.613 328.954 399.025 288.156 387.768 216.261C378.796 158.96 346.806 130.19 325.784 113.637C269.519 69.3354 206.139 65.0582 154.091 120.12C128.307 147.397 103.652 199.619 110.301 278.799C117.575 365.411 161.719 383.832 190.83 397.077C207.136 404.496 223.544 409.421 239.932 412.7C253.545 415.424 267.16 416.974 280.74 417.38C290.601 417.675 300.446 417.363 310.255 416.333C350.716 412.083 396.818 401.139 417.45 307.588C422.764 283.493 425.909 255.106 424.566 226.359C420.43 137.844 370.304 96.6635 341.849 75.4331C273.934 24.7606 195.815 24.8137 132.673 84.7572C103.956 112.02 67.577 168.086 70.6522 258.005C74.3794 366.991 129.027 400.06 163.51 420.177C242.525 466.273 328.299 475.746 404.286 426.781C430.238 410.058 469.258 381.14 476.479 307.503C487.52 194.895 420.349 100.482 385.075 64.7918C297.398 -23.9186 187.685 -2.01828 104.564 67.3763C71.0416 95.3633 15.3503 161.714 22.7914 272.863C25.1723 308.427 36.6005 338.153 47.8116 360.267C73.9397 411.805 106.764 441.522 137.94 462.809C234.83 528.969 344.367 524.834 436.653 458.572C450.777 448.43 464.705 435.923 477.395 418.272C485.172 407.455 492.558 394.533 498.537 378.208C535.694 276.755 476.598 147.603 442.338 87.4858C434.177 73.1662 425.769 59.9187 417.211 47.242ZM233.055 178.806C232.067 179.262 231.303 176.122 231.977 174.35C233.831 169.476 251.443 166.337 254.917 165.298C270.637 160.6 288.185 154.697 304.278 163.37C316.08 169.731 310.078 190.394 303.722 201.013C289.481 224.804 273.092 241.099 257.138 257.389C256.585 257.954 255.894 257.15 255.675 255.681C254.384 247.047 266.036 242.355 267.385 240.918C269.067 239.127 270.745 237.315 272.418 235.48C279.643 227.557 307.264 200.686 309.325 178.647C310.588 165.137 293.289 165.291 290.955 165.162C271.469 164.084 251.873 170.12 233.055 178.806Z" fill="#131313" stroke="black" stroke-width="2" stroke-linecap="round" stroke-linejoin="round"/>
</svg>
